<svg width="32" height="32" viewBox="0 0 32 32" fill="none" xmlns="http://www.w3.org/2000/svg">
<path fill-rule="evenodd" clip-rule="evenodd" d="M25.3338 3.3338C24.2288 3.3338 23.3338 4.22881 23.3338 5.3338C23.3338 6.43755 24.2288 7.3338 25.3338 7.3338C26.4375 7.3338 27.3338 6.43755 27.3338 5.3338C27.3338 4.22881 26.4375 3.3338 25.3338 3.3338ZM25.3338 4.66631C25.7012 4.66631 26 4.96506 26 5.3338C26 5.70129 25.7013 6.00004 25.3338 6.00004C24.965 6.00004 24.6663 5.70129 24.6663 5.3338C24.6663 4.96507 24.965 4.66631 25.3338 4.66631Z" fill="black"/>
<path fill-rule="evenodd" clip-rule="evenodd" d="M25.3338 14C24.2288 14 23.3338 14.8963 23.3338 16C23.3338 17.1037 24.2288 18 25.3338 18C26.4375 18 27.3338 17.1037 27.3338 16C27.3338 14.8963 26.4375 14 25.3338 14ZM25.3338 15.3338C25.7012 15.3338 26 15.6325 26 16C26 16.3675 25.7013 16.6662 25.3338 16.6662C24.965 16.6662 24.6663 16.3675 24.6663 16C24.6663 15.6325 24.965 15.3338 25.3338 15.3338Z" fill="black"/>
<path fill-rule="evenodd" clip-rule="evenodd" d="M25.3338 24.6663C24.2288 24.6663 23.3338 25.5625 23.3338 26.6663C23.3338 27.7713 24.2288 28.6663 25.3338 28.6663C26.4375 28.6663 27.3338 27.7713 27.3338 26.6663C27.3338 25.5625 26.4375 24.6663 25.3338 24.6663ZM25.3338 26C25.7012 26 26 26.2988 26 26.6663C26 27.035 25.7013 27.3337 25.3338 27.3337C24.965 27.3337 24.6663 27.035 24.6663 26.6663C24.6663 26.2988 24.965 26 25.3338 26Z" fill="black"/>
<path fill-rule="evenodd" clip-rule="evenodd" d="M20 3.3338C18.8963 3.3338 18 4.22881 18 5.3338C18 6.43755 18.8963 7.3338 20 7.3338C21.1037 7.3338 22 6.43755 22 5.3338C22 4.22881 21.1037 3.3338 20 3.3338ZM20 4.66631C20.3675 4.66631 20.6662 4.96506 20.6662 5.3338C20.6662 5.70129 20.3675 6.00004 20 6.00004C19.6325 6.00004 19.3338 5.70129 19.3338 5.3338C19.3338 4.96507 19.6325 4.66631 20 4.66631Z" fill="black"/>
<path fill-rule="evenodd" clip-rule="evenodd" d="M20 14C18.8963 14 18 14.8963 18 16C18 17.1037 18.8963 18 20 18C21.1037 18 22 17.1037 22 16C22 14.8963 21.1037 14 20 14ZM20 15.3338C20.3675 15.3338 20.6662 15.6325 20.6662 16C20.6662 16.3675 20.3675 16.6662 20 16.6662C19.6325 16.6662 19.3338 16.3675 19.3338 16C19.3338 15.6325 19.6325 15.3338 20 15.3338Z" fill="black"/>
<path fill-rule="evenodd" clip-rule="evenodd" d="M20 24.6663C18.8963 24.6663 18 25.5625 18 26.6663C18 27.7713 18.8963 28.6663 20 28.6663C21.1037 28.6663 22 27.7713 22 26.6663C22 25.5625 21.1037 24.6663 20 24.6663ZM20 26C20.3675 26 20.6662 26.2988 20.6662 26.6663C20.6662 27.035 20.3675 27.3337 20 27.3337C19.6325 27.3337 19.3338 27.035 19.3338 26.6663C19.3338 26.2988 19.6325 26 20 26Z" fill="black"/>
<path fill-rule="evenodd" clip-rule="evenodd" d="M4 4.66628H13.3338C13.7013 4.66628 14 4.36753 14 4.00004C14 3.63255 13.7013 3.3338 13.3338 3.3338H4C3.63251 3.3338 3.33376 3.63255 3.33376 4.00004C3.33376 4.36753 3.63251 4.66628 4 4.66628Z" fill="black"/>
<path fill-rule="evenodd" clip-rule="evenodd" d="M4 15.3338H13.3338C13.7013 15.3338 14 15.035 14 14.6663C14 14.2988 13.7013 14.0001 13.3338 14.0001H4C3.63251 14.0001 3.33376 14.2988 3.33376 14.6663C3.33376 15.035 3.63251 15.3338 4 15.3338Z" fill="black"/>
<path fill-rule="evenodd" clip-rule="evenodd" d="M4 26H13.3338C13.7013 26 14 25.7012 14 25.3337C14 24.965 13.7013 24.6663 13.3338 24.6663H4C3.63251 24.6663 3.33376 24.965 3.33376 25.3337C3.33376 25.7012 3.63251 26 4 26Z" fill="black"/>
<path fill-rule="evenodd" clip-rule="evenodd" d="M4 7.33379H13.3338C13.7013 7.33379 14 7.03504 14 6.6663C14 6.29881 13.7013 6.00006 13.3338 6.00006H4C3.63251 6.00006 3.33376 6.29881 3.33376 6.6663C3.33376 7.03504 3.63251 7.33379 4 7.33379Z" fill="black"/>
<path fill-rule="evenodd" clip-rule="evenodd" d="M4 18H13.3338C13.7013 18 14 17.7013 14 17.3338C14 16.9651 13.7013 16.6663 13.3338 16.6663H4C3.63251 16.6663 3.33376 16.9651 3.33376 17.3338C3.33376 17.7013 3.63251 18 4 18Z" fill="black"/>
<path fill-rule="evenodd" clip-rule="evenodd" d="M4 28.6663H13.3338C13.7013 28.6663 14 28.3675 14 28C14 27.6326 13.7013 27.3338 13.3338 27.3338H4C3.63251 27.3338 3.33376 27.6326 3.33376 28C3.33376 28.3675 3.63251 28.6663 4 28.6663Z" fill="black"/>
<path fill-rule="evenodd" clip-rule="evenodd" d="M3.33376 9.9325V11.4012C2.6975 11.5312 2.10877 11.8437 1.6425 12.3087C1.0175 12.935 0.666241 13.7825 0.666241 14.6662V17.3337C0.666241 18.2175 1.0175 19.065 1.6425 19.6912C2.10874 20.1562 2.6975 20.4687 3.33376 20.5987V22.0674C2.6975 22.1974 2.10877 22.5112 1.6425 22.9762C1.0175 23.6012 0.666241 24.4487 0.666241 25.3337V27.9999C0.666241 28.8837 1.0175 29.7324 1.6425 30.3574C2.26749 30.9824 3.11626 31.3337 4 31.3337H28C28.8837 31.3337 29.7325 30.9824 30.3575 30.3574C30.9825 29.7324 31.3338 28.8837 31.3338 27.9999V25.3337C31.3338 24.4487 30.9825 23.6012 30.3575 22.9762C29.8913 22.5112 29.3025 22.1974 28.6662 22.0674V20.5987C29.3025 20.4687 29.8912 20.1562 30.3575 19.6912C30.9825 19.065 31.3338 18.2175 31.3338 17.3337V14.6662C31.3338 13.7825 30.9825 12.935 30.3575 12.3087C29.8913 11.8437 29.3025 11.5312 28.6662 11.4012V9.9325C29.3025 9.8025 29.8912 9.48876 30.3575 9.02376C30.9825 8.39877 31.3338 7.55125 31.3338 6.66626V4.00002C31.3338 3.11628 30.9825 2.26751 30.3575 1.64252C29.7325 1.01752 28.8837 0.66626 28 0.66626H4C3.11626 0.66626 2.26749 1.01752 1.6425 1.64252C1.0175 2.26751 0.666241 3.11628 0.666241 4.00002V6.66626C0.666241 7.55125 1.0175 8.39877 1.6425 9.02376C2.10874 9.48876 2.6975 9.80252 3.33376 9.9325ZM30 25.3338V28C30 28.5313 29.7887 29.0388 29.4138 29.4138C29.0388 29.7888 28.5313 30 28 30H4C3.46874 30 2.96125 29.7888 2.58624 29.4138C2.21123 29.0388 2 28.5313 2 28V25.3338C2 24.8025 2.21125 24.2938 2.58624 23.9188C2.96123 23.5438 3.46874 23.3338 4 23.3338H28C28.5313 23.3338 29.0387 23.5438 29.4138 23.9188C29.7888 24.2938 30 24.8025 30 25.3338ZM4.66624 22H27.3338V20.6663H4.66624V22ZM28 12.6663C28.5313 12.6663 29.0387 12.8775 29.4138 13.2525C29.7888 13.6275 30 14.1362 30 14.6663V17.3337C30 17.8637 29.7887 18.3725 29.4138 18.7475C29.0387 19.1225 28.5313 19.3337 28 19.3337H4C3.46874 19.3337 2.96125 19.1225 2.58624 18.7475C2.21123 18.3725 2 17.8638 2 17.3337V14.6663C2 14.1363 2.21125 13.6275 2.58624 13.2525C2.96125 12.8775 3.46874 12.6663 4 12.6663H28ZM4.66624 10V11.3338H27.3338V10H4.66624ZM28 8.66626H4C3.46874 8.66626 2.96125 8.45626 2.58624 8.08127C2.21123 7.70628 2 7.19752 2 6.66626V4.00002C2 3.46876 2.21125 2.96127 2.58624 2.58626C2.96123 2.21125 3.46874 2.00002 4 2.00002H28C28.5313 2.00002 29.0387 2.21127 29.4138 2.58626C29.7888 2.96125 30 3.46876 30 4.00002V6.66626C30 7.19752 29.7887 7.70626 29.4138 8.08127C29.0388 8.45628 28.5313 8.66626 28 8.66626Z" fill="black"/>
</svg>
