<svg width="32" height="32" viewBox="0 0 32 32" fill="none" xmlns="http://www.w3.org/2000/svg">
<path d="M8.9936 2.72748C8.8611 2.72748 8.7336 2.77998 8.64109 2.87498C8.54734 2.96873 8.49484 3.09623 8.49484 3.22874V9.72858H1.99852C1.86602 9.72858 1.73727 9.78108 1.64351 9.87483C1.54976 9.96983 1.49601 10.0973 1.49726 10.2311V12.9623C1.49601 13.0948 1.54976 13.2236 1.64351 13.3174C1.73726 13.4124 1.86601 13.4649 1.99852 13.4636H2.71852V28.2722H2.01103H1.96228C1.69103 28.2922 1.48478 28.5247 1.49729 28.796C1.51104 29.0672 1.73854 29.2797 2.01105 29.2722H29.9922H29.9909C30.1259 29.276 30.2559 29.2247 30.3522 29.1297C30.4484 29.036 30.5022 28.9072 30.5022 28.7722C30.5022 28.6385 30.4484 28.5097 30.3522 28.4147C30.2559 28.321 30.1259 28.2697 29.9909 28.2722H29.2609V13.4636H29.9809C30.2559 13.4636 30.4797 13.2386 30.4784 12.9624V10.2311C30.4797 9.95484 30.2559 9.72984 29.9809 9.72859H23.4846V3.22875C23.4846 2.9525 23.2621 2.7275 22.9859 2.7275L8.9936 2.72748ZM9.4961 3.72873L22.4849 3.72748V28.2712L18.3687 28.2724V23.5812C18.3687 23.305 18.1437 23.0825 17.8675 23.0837H14.11C13.835 23.085 13.6125 23.3062 13.6113 23.5812V28.2724H9.49642L9.4961 3.72873ZM11.4524 5.53999C11.3186 5.53874 11.1911 5.59124 11.0961 5.68624C11.0023 5.77999 10.9498 5.90874 10.9498 6.04125V9.33501C10.9511 9.61001 11.1761 9.83376 11.4523 9.83251H14.6859C14.9609 9.83376 15.1859 9.61001 15.1872 9.33501V6.04125C15.1884 5.90875 15.1347 5.78 15.0409 5.68624C14.9472 5.59124 14.8184 5.53874 14.6859 5.53999H11.4524ZM17.2911 5.53999C17.0148 5.53999 16.7923 5.76499 16.7936 6.04124V9.335C16.7936 9.60875 17.0161 9.83125 17.2911 9.8325H20.5285C20.8023 9.83125 21.0248 9.60875 21.026 9.335V6.04124C21.0273 5.76499 20.8048 5.53999 20.5285 5.53999H17.2911ZM11.95 6.54124H14.1862V8.83375L11.95 8.8325V6.54124ZM17.7925 6.54124H20.0263V8.83375L17.7938 8.8325L17.7925 6.54124ZM2.49747 10.73H8.49491V12.465L2.49875 12.4638L2.49747 10.73ZM23.4837 10.73H29.4773V12.465H23.4824L23.4837 10.73ZM11.4511 11.3838L11.4523 11.3825C11.3186 11.3813 11.1911 11.435 11.0961 11.5288C11.0023 11.6225 10.9498 11.7513 10.9498 11.8838V15.1776C10.9511 15.4538 11.1761 15.6763 11.4523 15.6751H14.6859C14.9609 15.6763 15.1859 15.4538 15.1872 15.1776V11.8838C15.1884 11.7513 15.1347 11.6226 15.0409 11.5288C14.9472 11.435 14.8184 11.3813 14.6859 11.3825L11.4511 11.3838ZM17.2898 11.3838L17.291 11.3825C17.0148 11.3838 16.7923 11.6076 16.7935 11.8838V15.1776C16.7935 15.4513 17.016 15.6738 17.291 15.6751H20.5285C20.8022 15.6738 21.0247 15.4513 21.026 15.1776V11.8838C21.0272 11.6075 20.8047 11.3838 20.5285 11.3825L17.2898 11.3838ZM11.9487 12.385L14.1862 12.3838V14.6788H11.9499L11.9487 12.385ZM17.7912 12.385H20.025L20.0262 14.6788H17.7937L17.7912 12.385ZM3.71763 13.4663L8.49523 13.4638V28.2724H3.72019L3.71763 13.4663ZM23.4828 13.4663H28.2591L28.2616 28.2727H23.4853L23.4828 13.4663ZM11.4002 17.2289C11.1452 17.2551 10.9502 17.4701 10.9502 17.7276V21.0201C10.9502 21.1538 11.0027 21.2813 11.0965 21.3751C11.1915 21.4701 11.319 21.5226 11.4527 21.5226H14.6863C14.8188 21.5226 14.9476 21.4701 15.0413 21.3751C15.1351 21.2813 15.1888 21.1538 15.1876 21.0201V17.7276C15.1863 17.4514 14.9613 17.2276 14.6863 17.2289H11.4527C11.4352 17.2276 11.4177 17.2276 11.4002 17.2289H11.4002ZM17.2428 17.2289H17.244C16.9878 17.2551 16.7927 17.4701 16.794 17.7276V21.0201C16.7928 21.2963 17.0153 21.5213 17.2915 21.5226H20.529C20.8052 21.5213 21.0277 21.2963 21.0265 21.0201V17.7276C21.0252 17.4526 20.8027 17.2301 20.529 17.2289H17.2915H17.244H17.2428ZM11.9503 18.2289H14.1865V20.5214L11.9503 20.5226V18.2289ZM17.7928 18.2289H20.0266V20.5214L17.7941 20.5226L17.7928 18.2289ZM14.6116 24.0839H17.3678V28.274L14.6116 28.2727V24.0839Z" fill="black"/>
</svg>
