<svg width="138" height="29" viewBox="0 0 138 29" fill="none" xmlns="http://www.w3.org/2000/svg">
<path d="M25.2642 15.0699L25.2823 15.0713L27.178 15.2694C27.3111 15.2838 27.4333 15.3487 27.5197 15.4503L27.5337 15.4675L27.5157 15.4765C27.6043 15.5883 27.6434 15.7314 27.6238 15.8728C27.2096 19.1655 25.6489 22.2072 23.2157 24.4639C20.6909 26.8056 17.3746 28.1066 13.931 28.1066C12.2585 28.1093 10.6003 27.8014 9.04058 27.1987L8.95561 27.1655C8.82795 27.1184 8.72538 27.0213 8.67108 26.8972L8.66291 26.8774C8.60974 26.7538 8.60678 26.6148 8.65405 26.4896L9.4023 24.664C9.50369 24.4059 9.79103 24.2759 10.0505 24.3674L10.0678 24.3739C13.8924 25.8506 18.2242 25.0189 21.23 22.2306C23.1432 20.4726 24.3768 18.0977 24.715 15.5215C24.7508 15.2555 24.9816 15.062 25.2461 15.0691L25.2642 15.0699ZM70.0347 7.32217C71.6511 7.32217 72.9152 7.81533 73.7225 8.76245L73.7495 8.79455V7.99306C73.7603 7.76935 73.9335 7.58855 74.1547 7.56671L74.1727 7.56529H76.3295C76.5514 7.58063 76.7279 7.75529 76.7471 7.97514L76.7483 7.99306V19.9658C76.818 21.654 76.2991 23.314 75.2804 24.6621C74.1187 26.0759 72.3537 26.7918 70.0347 26.7918C66.8108 26.7918 64.2667 24.7521 63.848 21.8388C63.8272 21.6285 63.9553 21.4329 64.1545 21.367L64.1722 21.3615L66.2795 20.8663C66.2905 20.8638 66.3015 20.8617 66.3126 20.8601C66.5439 20.8262 66.7589 20.9862 66.7928 21.2175C66.9852 22.8517 68.3898 24.0708 70.0347 24.0317C72.5266 24.0317 73.6989 22.7651 73.7221 20.1184L73.7225 20.0377V18.9887C72.7884 20.0363 71.4376 20.6152 70.0347 20.5691C66.4506 20.5691 63.8526 17.7864 63.8526 13.9591C63.8197 12.2371 64.4261 10.5639 65.5545 9.26279C66.7007 8.00356 68.3322 7.29692 70.0347 7.32217ZM5.12431 21.8838L5.15104 21.8836L5.17786 21.8838C6.03819 21.8937 6.73089 22.5893 6.74024 23.4465L6.74031 23.4734C6.74031 23.4822 6.74021 23.4912 6.74005 23.5001C6.72507 24.3778 6.00151 25.0773 5.1238 25.0624C4.24609 25.0474 3.5467 24.3238 3.56153 23.4461C3.57621 22.5863 4.27083 21.8975 5.12431 21.8838ZM107.369 7.15558L107.48 7.15639C111.333 7.2096 113.72 9.89155 113.72 14.1842C113.72 14.4114 113.708 14.6383 113.684 14.8642C113.664 15.0718 113.494 15.232 113.287 15.2419L113.27 15.2423H104.111C104.167 17.1659 105.758 18.6878 107.682 18.6599C109.173 18.7536 110.533 17.8052 110.96 16.3726C111.038 16.1669 111.26 16.0563 111.469 16.1153L111.486 16.1204L113.314 16.7643C113.415 16.7968 113.498 16.8684 113.545 16.9626L113.553 16.9805C113.603 17.0796 113.612 17.1949 113.576 17.3001C112.727 19.8142 110.334 21.4776 107.682 21.3976C105.943 21.4149 104.269 20.7355 103.035 19.511C101.688 18.0933 100.969 16.1926 101.04 14.2383C101.04 9.84751 104.196 7.20872 107.278 7.15638L107.369 7.15558ZM55.545 7.15559H55.5495C59.4714 7.15559 61.9074 9.84819 61.9074 14.1842C61.9071 14.4114 61.895 14.6383 61.8713 14.8642C61.8531 15.073 61.6822 15.2343 61.4745 15.2421L61.4571 15.2423H52.2986C52.3551 17.1712 53.9534 18.6953 55.8827 18.66C57.3752 18.7553 58.7353 17.8063 59.1607 16.3726C59.237 16.1653 59.4604 16.0539 59.6705 16.1151L59.6875 16.1204L61.5156 16.7643C61.6225 16.7988 61.7094 16.8775 61.7542 16.9805C61.797 17.0827 61.797 17.1979 61.7542 17.3001C60.9058 19.8125 58.5154 21.4756 55.8647 21.3976C54.1228 21.4173 52.4457 20.7377 51.2089 19.511C49.8634 18.0923 49.1446 16.1923 49.2142 14.2383C49.2142 9.80316 52.4337 7.15559 55.545 7.15559ZM41.6767 7.15103C43.4372 7.15103 44.8601 7.5788 45.9138 8.42076C46.6262 8.98855 47.1542 9.75474 47.4311 10.6226L47.432 10.6261C47.4682 10.7757 47.3802 10.9265 47.2343 10.9698L47.2195 10.9738L45.0357 11.6943C44.9388 11.7327 44.8309 11.7327 44.7341 11.6943C44.6514 11.6557 44.5891 11.5835 44.5629 11.4962L44.5513 11.4532C44.3524 10.7422 43.7021 9.60051 41.6767 9.60051C40.2359 9.60051 39.3714 10.429 39.3714 11.2305L39.3717 11.2622C39.3825 11.7834 39.6659 12.4376 40.9086 12.6863L40.9473 12.6939L43.3517 13.1441C46.0085 13.6791 47.5399 15.123 47.5702 17.1354L47.5707 17.1966L47.5617 17.1606L47.5612 17.2217C47.5225 19.2389 45.5713 21.3615 41.9784 21.3615C37.7684 21.3615 36.1159 18.9796 35.8097 17.5748C35.7897 17.4279 35.8794 17.289 36.0196 17.2458L36.0348 17.2416L38.2862 16.5392C38.3264 16.5326 38.3675 16.5326 38.4078 16.5392C38.465 16.5381 38.5216 16.5503 38.5732 16.5745L38.5923 16.5842C38.6751 16.6238 38.7361 16.698 38.7589 16.7868C39.0427 18.1377 40.2629 18.9436 42.0189 18.9436C43.6534 18.9436 44.3964 18.0881 44.3964 17.3136C44.3964 16.5477 43.7489 15.9799 42.6327 15.7454L42.5953 15.7377L40.0693 15.2469C37.7143 14.8011 36.2465 13.3377 36.2465 11.4331C36.2465 9.1142 38.7365 7.15103 41.6767 7.15103ZM132.487 3.40031H134.455C134.687 3.41425 134.869 3.60255 134.878 3.83319L134.878 3.85056V7.54729H137.246C137.477 7.56348 137.656 7.75095 137.665 7.97985L137.666 7.99754V9.96072L137.665 9.97781C137.659 10.1979 137.484 10.3767 137.264 10.3879L137.246 10.3885H134.878V16.9579C134.878 18.0475 135.31 18.4979 136.422 18.4979C136.647 18.494 136.873 18.4769 137.096 18.4467L137.179 18.4348C137.302 18.414 137.427 18.4487 137.521 18.5294C137.606 18.6082 137.657 18.7167 137.665 18.8319L137.666 18.8536V20.7041C137.667 20.8927 137.544 21.0598 137.364 21.1139C136.845 21.2591 136.31 21.332 135.771 21.3307L135.698 21.33C133.348 21.33 131.882 19.834 131.853 17.4143L131.853 17.3407V10.4155H129.804C129.58 10.4024 129.401 10.2271 129.382 10.0058L129.38 9.98774V8.01553C129.38 7.78287 129.557 7.58923 129.786 7.56666L129.804 7.56529L130.354 7.56522L130.413 7.56417C131.056 7.5457 132.044 7.28512 132.064 5.84991L132.064 5.80469V3.85056C132.063 3.61789 132.241 3.42426 132.47 3.40168L132.487 3.40031ZM94.2436 7.15358L94.2952 7.15559H94.2906C96.6087 7.15559 98.9489 8.77071 98.9954 12.2982L98.9961 12.4056V20.7447C98.9856 20.9684 98.8118 21.1491 98.5909 21.171L98.5729 21.1725H96.4159C96.1926 21.1592 96.0139 20.984 95.9939 20.7627L95.9927 20.7447V12.6759L95.9923 12.6137C95.9792 11.5856 95.6297 9.93368 93.5121 9.93368C91.947 9.93368 90.8323 11.1517 90.8102 12.9237L90.8098 12.9775V20.7447C90.7993 20.9684 90.6262 21.1491 90.4047 21.171L90.3866 21.1725H88.2033C87.9792 21.1592 87.8006 20.984 87.7813 20.7627L87.7801 20.7447V12.6759L87.7797 12.6137C87.7666 11.5856 87.4172 9.93368 85.2987 9.93368C83.6717 9.93368 82.57 11.1429 82.5482 12.9496L82.5478 13.0045V20.7447C82.5366 20.9684 82.3635 21.1491 82.1426 21.171L82.1246 21.1725H79.9676C79.7458 21.1571 79.5693 20.9824 79.5502 20.7626L79.549 20.7447V7.96603C79.5596 7.7439 79.7304 7.56372 79.9497 7.53985L79.9676 7.53826H82.0435C82.2669 7.55142 82.4463 7.72668 82.4655 7.94799L82.4668 7.96603V8.73601C83.4005 7.71226 84.728 7.13705 86.1135 7.15559C87.7183 7.10855 89.2158 7.957 89.9997 9.35732C90.9332 7.93093 92.5427 7.09647 94.2436 7.15358ZM126.539 8.74497C127.365 9.83355 127.791 11.1724 127.748 12.5371L127.745 12.5948V20.7447C127.735 20.9668 127.564 21.147 127.345 21.1709L127.327 21.1725H125.144C124.92 21.1592 124.741 20.984 124.721 20.7627L124.72 20.7447V13.0316C124.72 11.0143 123.77 9.98774 121.969 9.98774C121.173 9.96202 120.413 10.3164 119.92 10.9423C119.443 11.6293 119.197 12.4492 119.216 13.2841L119.218 13.3332V20.7447C119.207 20.9684 119.033 21.1491 118.813 21.171L118.795 21.1725H116.615C116.392 21.1592 116.212 20.984 116.193 20.7627L116.192 20.7447V7.957C116.203 7.73328 116.376 7.55255 116.597 7.53065L116.615 7.52922H118.745C118.967 7.54456 119.143 7.7193 119.163 7.93908L119.164 7.957V8.85757C120.077 7.75072 121.448 7.12354 122.883 7.15559C124.281 7.09581 125.629 7.6819 126.539 8.74497ZM1.03984 15.6161H16.5427C16.8275 15.6186 17.0577 15.8467 17.0649 16.1294L17.065 16.1475V18.0882C17.0674 18.373 16.8432 18.607 16.5607 18.619L16.5426 18.6194H1.03984C0.754901 18.617 0.524831 18.3888 0.517517 18.1062V18.0881V16.1474V16.1293C0.524678 15.8528 0.745075 15.6285 1.02134 15.6166L1.03984 15.6161ZM70.4085 10.0148C68.2832 10.0148 66.9324 11.5277 66.9324 13.9591C66.9324 16.3906 68.2651 17.899 70.4085 17.899C72.4527 17.899 73.8305 16.3141 73.8305 13.9591C73.8305 11.5997 72.4527 10.0148 70.4085 10.0148ZM52.3944 12.6455L52.3887 12.6939H58.796C58.64 10.9821 57.4337 9.91471 55.627 9.89353L55.572 9.89321C53.9801 9.86732 52.6244 11.0317 52.4009 12.598L52.3944 12.6455ZM104.225 12.6455L104.219 12.6939H110.627C110.471 10.9821 109.264 9.91471 107.457 9.89353L107.403 9.89321C105.811 9.86732 104.455 11.0317 104.231 12.598L104.225 12.6455ZM18.4833 0.806722C18.6175 0.855145 18.7263 0.955852 18.785 1.08591C18.8388 1.2172 18.8388 1.36439 18.785 1.49561L18.1096 3.29675C18.016 3.56381 17.724 3.70475 17.4567 3.61192C13.9184 2.37718 9.99218 3.07873 7.10048 5.46249C5.29834 6.97093 4.01873 9.01017 3.44429 11.289C3.38483 11.5191 3.17762 11.6801 2.93999 11.6808H2.82291L0.967783 11.235C0.829466 11.2025 0.710687 11.1145 0.639095 10.9918H0.63006C0.554993 10.8692 0.533832 10.721 0.571597 10.5821C1.30829 7.66499 2.95667 5.05912 5.27687 3.1436C8.96626 0.106253 13.9757 -0.780185 18.4833 0.806722ZM11.6167 8.58742H27.1195C27.3973 8.58968 27.6244 8.80702 27.641 9.08225L27.6418 9.10068V11.0414C27.6442 11.3263 27.4201 11.5603 27.1376 11.5723L27.1195 11.5727H11.6167C11.3336 11.5679 11.1062 11.3406 11.099 11.0598L11.0988 11.0414V9.11868C11.0964 8.83561 11.3177 8.60247 11.5983 8.58805L11.6167 8.58742ZM22.3787 2.6663L22.4054 2.66609L22.4322 2.66633C23.2925 2.67619 23.9852 3.37184 23.9946 4.22895L23.9946 4.25578C23.9946 4.26474 23.9945 4.2737 23.9944 4.28258C23.9795 5.16029 23.2558 5.85968 22.3781 5.84477C21.5004 5.82987 20.801 5.10623 20.8159 4.2286C20.8305 3.36872 21.5252 2.68004 22.3787 2.6663Z" fill="#4FB58B"/>
</svg>
